<svg xmlns="http://www.w3.org/2000/svg" viewBox="0 0 367 344"><defs><style>.a{fill:none;stroke:#000;stroke-miterlimit:10;stroke-width:8px;}</style></defs><path class="a" d="M166.91,147.37c2.91-14.23,5.78-28.48,8.74-42.7,4.75-22.88,9.53-45.76,16.28-68.15,1.91-6.36,4.31-12.5,9.29-17.2,8.1-7.65,17.54-6.67,23.61,2.68,5.43,8.36,6.95,17.82,6.44,27.57a407.31,407.31,0,0,1-6.3,51.75c-1,5.72-2.05,10,6.43,11.16,7.71,1,13.16,7.53,19.51,11.81,5.47,3.69,14.58-1.34,22,2.23,8.84,4.22,15.2,9.84,14.74,20.36-1.78,41.11,5,82,3.46,123.08-1.34,35.79-13.91,51.49-48.73,60.09-23.74,5.87-47.93,7.49-72.33,6.52a39.92,39.92,0,0,1-28.65-13,193.14,193.14,0,0,1-47.92-88.24c-3.6-14.86,1.57-28.19,11.39-38.08,12.73-12.82,13.86-26.51,11.38-43.07-4.53-30.25-6.64-60.81-8.22-91.37-.52-10.19-1.09-20.38.55-30.53,1.84-11.38,7.72-18.69,15.69-19.46S140.76,18,144.46,28c5.42,14.7,6.94,30.34,9.51,45.68,4.1,24.44,7.7,49,11.51,73.46Zm7.8,24.15c-10.66,1.57-21.18,4.76-31.86,5.42-21.45,1.32-32.72,14.89-42,31.82C96,217.64,94.49,226.83,97,236.52a194.36,194.36,0,0,0,46.1,84.26c5.58,6,12.08,11.17,20.63,11.8,32,2.32,63.7,1,93.88-10.75,13.73-5.34,24.3-15.17,27.54-30.85,6.33-30.62,1.84-61.12-.56-92-3.89,8.29-9,15-18.73,14.64-11.17-.42-13.79-9.77-16.75-18.89-9.08,19.38-15.69,21.46-34,11-3.55-2-4.06,1-5.57,2.33-15.87,14.33-35.36,17.49-57,19.14,2.93-4.83,5.95-3.57,8.4-3.82,12.32-1.28,24.26-4,35.33-9.65,11.38-5.8,18.57-15,20.51-27.8.85-5.62-.23-11.26-5.62-14.13C206.38,169.26,200,169,193,170ZM250,154.17c0-4.79.24-9.6,0-14.38-.93-15.81-7.71-23-23.54-25.23-10-1.42-14.73,1.89-16.34,11.83-2,12.22-1.45,24.49-.3,36.76.2,2.14.4,4,2.45,5.38,10.36,7,8.86,16.57,5.51,26.46-2.49,7.32.67,12.65,8.39,14,8.47,1.52,15.26-3.09,18.62-13.16C249.2,182.35,249.64,168.24,250,154.17ZM285.41,159c-.17-3.58-.16-7.18-.54-10.74-1.38-13.14-10-20.69-23.24-20.69-6.18,0-9.24,1.94-8.72,9a190.77,190.77,0,0,1-1.34,41.14c-1.21,8.48.76,16.75,3.69,24.58,3.49,9.35,14.35,11,21.06,3.57,3.33-3.67,4.61-8.32,5.55-13C284.1,181.72,284.82,170.39,285.41,159Z"/></svg>