<svg xmlns="http://www.w3.org/2000/svg" viewBox="0 0 367 344"><path d="M287.37,214.89c-.12-1.36-.24-2.72-.37-4.1A20.68,20.68,0,0,1,270.05,218c-10.42-.39-15.23-6.83-18.26-14-3.27,5.4-7.2,9.81-12.43,11.46-7.61,2.41-16.26-1.53-24.49-6.22a10.65,10.65,0,0,1-1.53,1.78c-18.37,16.59-41,19.59-62.57,21.24l-7.77.6,4-6.66c3.68-6.06,8.28-6,10.76-5.94a10,10,0,0,0,1.12,0c14.13-1.46,25.88-4.66,35.92-9.78,11.16-5.69,17.73-14.57,19.53-26.41.82-5.36-.48-9-3.86-10.79-3.8-2-9.43-2.52-16.75-1.47l-.24,0-19.19,1.59c-4.26.63-8.62,1.54-12.83,2.41-6.83,1.42-13.89,2.9-21.05,3.33-21.65,1.34-32.56,16-41.11,31.55-4.82,8.78-6,17.41-3.67,26.39a202.44,202.44,0,0,0,47.76,87.32,50,50,0,0,0,7.14,6.47,38.53,38.53,0,0,0,12.2,4.73c11.25.81,21.71,1.13,31.53.93a237.93,237.93,0,0,0,48.13-6.56c21.89-5.41,35-13.62,42-27.86a41.17,41.17,0,0,0,2.21-7.29C292.14,268.43,289.82,242.42,287.37,214.89Z" style="fill:#fff"/><path d="M269.24,206.6a9.81,9.81,0,0,0,9-3.45c2.7-3,3.91-6.89,4.9-11.86,2.28-11.37,3-23,3.66-35-.05-1.15-.09-2.3-.13-3.44-.08-2.6-.16-5.05-.41-7.48-1.25-11.78-8.55-18.28-20.57-18.28h0c-3.23,0-4.27.6-4.6,1-.56.59-.78,2.15-.63,4.27A207.14,207.14,0,0,1,259,176.66c-1,7,.16,14.62,3.67,24A8.86,8.86,0,0,0,269.24,206.6Z" style="fill:#fff"/><path d="M116.3,154.14c1.35,9,1.62,17.18-.46,24.81A48.9,48.9,0,0,1,140,171.24a140.62,140.62,0,0,0,19.91-3.18c4.37-.91,8.89-1.85,13.42-2.52l.25,0,19.21-1.59a45.36,45.36,0,0,1,14.55,0,19.78,19.78,0,0,1-.42-2.86c-1.1-11.82-1.92-25.8.36-39.84,1.77-11,7.26-16.22,17.14-16.17.12-1.15.35-2.38.59-3.7a407.31,407.31,0,0,0,6.3-51.75c.51-9.75-1-19.21-6.44-27.57-6.07-9.35-15.51-10.33-23.61-2.68-5,4.7-7.38,10.84-9.29,17.2-6.75,22.39-11.53,45.27-16.28,68.15-3,14.22-5.83,28.47-8.74,42.7l-1.43-.21c-3.81-24.49-7.41-49-11.51-73.46-2.57-15.35-4.09-31-9.51-45.68-3.7-10-12.3-16-20.14-15.24s-13.85,8.08-15.69,19.46c-1.64,10.15-1.07,20.34-.55,30.53C109.66,93.33,111.77,123.89,116.3,154.14Z" style="fill:#fff"/><path d="M215.13,122.47c-2.13,13.15-1.34,26.5-.28,37.82.21,2.23.35,2.41.85,2.75,13.19,8.91,11.13,21.45,7.36,32.54-.62,1.85-1.13,4.46,0,6.42s3.79,2.84,5.77,3.2C237.77,206.79,242,200,244,194c4.7-14.1,5-29.37,5.34-42.84,0-1.6,0-3.2,0-4.79.06-3.5.11-6.81-.08-10.12-.87-14.8-6.48-20.8-21.44-22.93A28.07,28.07,0,0,0,224,113C218.4,113,216.25,115.57,215.13,122.47Z" style="fill:#fff"/></svg>